# xmcd
#
# Track frame offsets: 
#        150
#        20753
#        47337
#        69720
#        85732
#        103490
#        119488
#        134711
#        152844
#        177865
#        194044
#        209461
#        232959
#        257783
#        275258
#        291646
#        320950
#
# Disc length: 4770 seconds
#
# Revision: 0
# Processed by: cddbd v1.5.2PL0 Copyright (c) Steve Scherf et al.
# Submitted via: ExactAudioCopy v1.3
#
DISCID=1512a011
DTITLE=Various Artist - Akella Presents - vol. 157 - Rockin' Blues and 
DTITLE=Boogie Rock  CD1
DYEAR=2018
DGENRE=Blues
TTITLE0=Too Mutz Blues Band - Let The Blues Get In
TTITLE1=The Scandaleros - Battle
TTITLE2=The Bluesbones - Psycho Mind
TTITLE3=Lew Jetton - Who's Texting You
TTITLE4=Mike Zito - Mama Don't Like No Wah Wah
TTITLE5=Smoky Greenwell - Animal Angels
TTITLE6=Jon Tiven Group - Midnight Train
TTITLE7=Robin Barrett and Coyote Kings - Dark Dark Night
TTITLE8=Ghost Town Blues Band - Nothin' But Time
TTITLE9=Subluna - Big Train From Memphis
TTITLE10=Jason Morton - The Things I've Done
TTITLE11=Van Galen Band - Freedom Blues
TTITLE12=Bare Wires - Love Me or Leave Me
TTITLE13=Fantastic Negrito - Push Back
TTITLE14=Louie Jerger and Marc Turner - Middle of the Night
TTITLE15=Brother Goose - Long Train Boogie
TTITLE16=Popa Chubby - Grown Man Crying Blues
EXTD=
EXTT0=
EXTT1=
EXTT2=
EXTT3=
EXTT4=
EXTT5=
EXTT6=
EXTT7=
EXTT8=
EXTT9=
EXTT10=
EXTT11=
EXTT12=
EXTT13=
EXTT14=
EXTT15=
EXTT16=
PLAYORDER=
